<?xml version="1.0" encoding="UTF-8" standalone="no"?>
<svg
   xmlns:dc="http://purl.org/dc/elements/1.1/"
   xmlns:cc="http://creativecommons.org/ns#"
   xmlns:rdf="http://www.w3.org/1999/02/22-rdf-syntax-ns#"
   xmlns:svg="http://www.w3.org/2000/svg"
   xmlns="http://www.w3.org/2000/svg"
   id="svg4"
   version="1.1"
   width="16"
   height="16">
  <metadata
     id="metadata10">
    <rdf:RDF>
      <cc:Work
         rdf:about="">
        <dc:format>image/svg+xml</dc:format>
        <dc:type
           rdf:resource="http://purl.org/dc/dcmitype/StillImage" />
        <dc:title></dc:title>
      </cc:Work>
    </rdf:RDF>
  </metadata>
  <defs
     id="defs8" />
  <path
     id="path2"
     color="#000000"
     white-space="normal"
     style="line-height:normal;text-indent:0;text-align:start;text-decoration:none;text-decoration-line:none;text-decoration-style:solid;text-decoration-color:#000000;text-transform:none;shape-padding:0;isolation:auto;mix-blend-mode:normal;marker:none"
     overflow="visible"
     font-weight="400"
     font-family="sans-serif"
     fill="#808080"
     d="m 5.6161588,13.017176 c -0.838,0.01 -1.45,-0.02 -1.953,0.258 -0.25,0.138 -0.4545798,0.350517 -0.56,0.664 -0.029438,0.114829 -0.071038,0.20913 -0.063136,0.437076 0,0.438 -0.00102,0.409748 0.1089776,0.701748 0.11,0.293 0.31,0.528 0.56,0.666 0.502,0.277 1.115,0.246 1.953,0.256 H 11.338 c 0.839,-0.01 1.451,0.021 1.953,-0.256 0.260405,-0.147768 0.417097,-0.378392 0.517977,-0.660295 0.160987,-0.622007 0.126783,-0.728056 -0.0038,-1.144525 -0.101524,-0.281025 -0.300133,-0.516518 -0.56,-0.664 -0.502,-0.277 -1.114,-0.248 -1.953,-0.258 H 5.6181588 Z M 8,1.303 12.24,5.541 9.301,8.01 l 2.94,2.469 -4.24,4.238 V 9.104 L 5.572,11.143 4.928,10.377 7.746,8.01 4.928,5.643 5.572,4.877 8,6.916 Z m 1,2.414 v 3.24 l 1.76,-1.48 z m 0,5.345 v 3.24 l 1.76,-1.759 z" />
</svg>
