<?xml version="1.0" encoding="UTF-8" standalone="no"?>
<svg
   xmlns:dc="http://purl.org/dc/elements/1.1/"
   xmlns:cc="http://creativecommons.org/ns#"
   xmlns:rdf="http://www.w3.org/1999/02/22-rdf-syntax-ns#"
   xmlns:svg="http://www.w3.org/2000/svg"
   xmlns="http://www.w3.org/2000/svg"
   xmlns:sodipodi="http://sodipodi.sourceforge.net/DTD/sodipodi-0.dtd"
   xmlns:inkscape="http://www.inkscape.org/namespaces/inkscape"
   inkscape:version="1.0 (6e3e5246a0, 2020-05-07)"
   sodipodi:docname="bluetooth-battery-level-10-symbolic.svg"
   height="16"
   width="16"
   version="1.1"
   id="svg4">
  <sodipodi:namedview
     inkscape:current-layer="svg4"
     inkscape:window-maximized="0"
     inkscape:window-y="27"
     inkscape:window-x="54"
     inkscape:cy="8"
     inkscape:cx="8"
     inkscape:zoom="40.4375"
     showgrid="false"
     id="namedview6"
     inkscape:window-height="1011"
     inkscape:window-width="1373"
     inkscape:pageshadow="2"
     inkscape:pageopacity="0"
     guidetolerance="10"
     gridtolerance="10"
     objecttolerance="10"
     borderopacity="1"
     bordercolor="#666666"
     pagecolor="#ffffff" />
  <metadata
     id="metadata10">
    <rdf:RDF>
      <cc:Work
         rdf:about="">
        <dc:format>image/svg+xml</dc:format>
        <dc:type
           rdf:resource="http://purl.org/dc/dcmitype/StillImage" />
        <dc:title />
      </cc:Work>
    </rdf:RDF>
  </metadata>
  <defs
     id="defs8" />
  <path
     d="m 5.6995718,14.977112 c -0.838,0.01 -1.3123409,0.0581 -1.5124435,0.301234 -0.1737854,0.188848 -0.179679,0.252001 0.010972,0.465817 C 4.3221845,15.880416 4.8240004,15.99 5.6620004,16 H 11.338 c 0.839,-0.01 0.964777,0.04593 1.466777,-0.231068 0.177974,-0.252447 0.233426,-0.238732 0.03759,-0.508884 -0.502,-0.277 -0.627777,-0.272932 -1.466777,-0.282932 H 5.7015718 Z M 8,1.303 12.24,5.541 9.301,8.01 l 2.94,2.469 -4.24,4.238 V 9.104 L 5.572,11.143 4.928,10.377 7.746,8.01 4.928,5.643 5.572,4.877 8,6.916 Z m 1,2.414 v 3.24 l 1.76,-1.48 z m 0,5.345 v 3.24 l 1.76,-1.759 z"
     fill="#808080"
     font-family="sans-serif"
     font-weight="400"
     overflow="visible"
     style="line-height:normal;text-indent:0;text-align:start;text-decoration:none;text-decoration-line:none;text-decoration-style:solid;text-decoration-color:#000000;text-transform:none;shape-padding:0;isolation:auto;mix-blend-mode:normal;marker:none"
     white-space="normal"
     color="#000000"
     id="path2" />
  <path
     id="path831"
     d="M 5.316847,15.97573 C 4.6756105,15.94013 4.3408974,15.860738 4.193358,15.709253 4.0380419,15.549783 4.0432013,15.452697 4.216324,15.277094 c 0.1295146,-0.131371 0.2916436,-0.194748 0.6306622,-0.246532 0.3097907,-0.04732 7.1306428,-0.04685 7.3811828,5.04e-4 0.09489,0.01794 0.270816,0.07828 0.390946,0.134093 0.184937,0.08593 0.227672,0.117272 0.278786,0.204492 0.0332,0.05666 0.06037,0.114034 0.06037,0.127509 0,0.01348 -0.0348,0.07704 -0.07733,0.141255 -0.05648,0.08526 -0.116462,0.136506 -0.222395,0.189981 -0.326566,0.16485 -0.09061,0.154663 -3.7188171,0.160541 -1.8089645,0.0029 -3.4392581,-0.003 -3.6228748,-0.01321 z"
     style="fill:#ff0000;fill-opacity:0.83722299;stroke:#5a0000;stroke-width:0" />
</svg>
