<?xml version="1.0" encoding="UTF-8" standalone="no"?>
<svg
   xmlns:dc="http://purl.org/dc/elements/1.1/"
   xmlns:cc="http://creativecommons.org/ns#"
   xmlns:rdf="http://www.w3.org/1999/02/22-rdf-syntax-ns#"
   xmlns:svg="http://www.w3.org/2000/svg"
   xmlns="http://www.w3.org/2000/svg"
   xmlns:sodipodi="http://sodipodi.sourceforge.net/DTD/sodipodi-0.dtd"
   xmlns:inkscape="http://www.inkscape.org/namespaces/inkscape"
   inkscape:version="1.0 (6e3e5246a0, 2020-05-07)"
   sodipodi:docname="bluetooth-battery-level-20-symbolic.svg"
   height="16"
   width="16"
   version="1.1"
   id="svg4">
  <sodipodi:namedview
     inkscape:current-layer="svg4"
     inkscape:window-maximized="0"
     inkscape:window-y="27"
     inkscape:window-x="54"
     inkscape:cy="8"
     inkscape:cx="8"
     inkscape:zoom="40.4375"
     showgrid="false"
     id="namedview6"
     inkscape:window-height="996"
     inkscape:window-width="1572"
     inkscape:pageshadow="2"
     inkscape:pageopacity="0"
     guidetolerance="10"
     gridtolerance="10"
     objecttolerance="10"
     borderopacity="1"
     bordercolor="#666666"
     pagecolor="#ffffff" />
  <metadata
     id="metadata10">
    <rdf:RDF>
      <cc:Work
         rdf:about="">
        <dc:format>image/svg+xml</dc:format>
        <dc:type
           rdf:resource="http://purl.org/dc/dcmitype/StillImage" />
        <dc:title />
      </cc:Work>
    </rdf:RDF>
  </metadata>
  <defs
     id="defs8" />
  <path
     d="m 5.6161588,13.017176 c -0.838,0.01 -1.45,-0.02 -1.953,0.258 -0.25,0.138 -0.4545798,0.350517 -0.56,0.664 -0.029438,0.114829 -0.071038,0.20913 -0.063136,0.437076 0,0.438 -0.00102,0.409748 0.1089776,0.701748 0.11,0.293 0.31,0.528 0.56,0.666 0.502,0.277 1.115,0.246 1.953,0.256 H 11.338 c 0.839,-0.01 1.451,0.021 1.953,-0.256 0.260405,-0.147768 0.417097,-0.378392 0.517977,-0.660295 0.160987,-0.622007 0.126783,-0.728056 -0.0038,-1.144525 -0.101524,-0.281025 -0.300133,-0.516518 -0.56,-0.664 -0.502,-0.277 -1.114,-0.248 -1.953,-0.258 H 5.6181588 Z M 8,1.303 12.24,5.541 9.301,8.01 l 2.94,2.469 -4.24,4.238 V 9.104 L 5.572,11.143 4.928,10.377 7.746,8.01 4.928,5.643 5.572,4.877 8,6.916 Z m 1,2.414 v 3.24 l 1.76,-1.48 z m 0,5.345 v 3.24 l 1.76,-1.759 z"
     fill="#808080"
     font-family="sans-serif"
     font-weight="400"
     overflow="visible"
     style="line-height:normal;text-indent:0;text-align:start;text-decoration:none;text-decoration-line:none;text-decoration-style:solid;text-decoration-color:#000000;text-transform:none;shape-padding:0;isolation:auto;mix-blend-mode:normal;marker:none"
     white-space="normal"
     color="#000000"
     id="path2" />
  <path
     id="path859"
     d="M 5.0200927,15.974408 C 4.2510778,15.952014 3.9684295,15.891929 3.6431624,15.681698 3.4648284,15.566435 3.3442534,15.428823 3.232123,15.212578 3.0822245,14.923496 3.0560259,14.811199 3.0552439,14.454405 c -5.991e-4,-0.273368 0.00791,-0.346527 0.056865,-0.488809 0.1888287,-0.548831 0.6451772,-0.838114 1.4308731,-0.907043 0.1626691,-0.01427 0.988811,-0.0257 1.8681465,-0.02584 l 1.5765069,-2.56e-4 v 0.840804 c 0,0.462442 0.00841,0.840804 0.018684,0.840804 0.010276,0 0.3969224,-0.378362 0.8592143,-0.840804 l 0.840531,-0.840804 1.1871533,2.12e-4 c 1.567315,2.79e-4 1.872845,0.0303 2.278488,0.223898 0.450832,0.215163 0.756151,0.772012 0.717786,1.309121 -0.03686,0.516099 -0.229017,0.913453 -0.541043,1.118818 -0.316646,0.208406 -0.583531,0.261267 -1.465914,0.290347 -0.782453,0.02579 -5.9731902,0.02545 -6.8624423,-4.45e-4 z"
     style="fill:#f1931b;fill-opacity:0.80125999;stroke:#5a0000;stroke-width:0" />
</svg>
